<svg viewBox="0 0 301 210" fill="none" xmlns="http://www.w3.org/2000/svg" aria-label="Danes mark">
<path d="M143.914 9.34155C143.533 5.40208 147.527 2.14181 151.303 3.32366C154.768 3.79911 156.221 7.61632 156.044 10.7271C156.153 46.9432 155.977 83.1728 156.126 119.402C155.936 126.004 163.448 128.667 168.936 128.667C173.595 128.368 175.701 123.641 177.942 120.231C188.661 102.884 199.447 85.5908 210.246 68.2843C211.686 65.6353 214.77 63.4754 217.853 64.8338C222.282 65.5809 223.111 71.4223 220.869 74.6553C209.187 93.755 197.096 112.624 185.468 131.751C180.877 138.285 190.114 147.508 196.689 142.985C227.824 126.14 258.878 109.133 290 92.2471C292.636 90.8208 296.439 90.4676 298.45 93.1437C301.642 96.3496 299.469 101.715 295.651 103.278C265.127 119.959 234.562 136.559 204.011 153.187C201.742 154.477 199.365 156.162 198.727 158.851C197.246 163.918 201.579 169.828 207.013 169.311C229.672 169.339 252.331 169.352 274.989 169.284C277.149 169.339 279.391 169.257 281.496 169.95C285.653 171.349 286.482 177.802 282.896 180.288C280.681 182.121 277.584 181.741 274.922 181.904C245.96 181.85 216.998 181.891 188.036 181.877C188.484 172.368 187.044 162.424 181.339 154.559C173.949 143.596 160.364 137.198 147.215 138.584C134.404 139.738 122.627 148.12 117.179 159.734C113.77 166.581 113.58 174.392 113.566 181.877C84.509 181.904 55.4519 181.836 26.3813 181.918C23.7324 181.782 20.6895 182.094 18.516 180.288C15.7176 178.114 15.5953 173.414 18.2443 171.105C20.445 169.135 23.5965 169.42 26.3406 169.298C48.9994 169.352 71.6717 169.325 94.3441 169.325C98.7862 169.719 102.984 165.942 102.957 161.446C103.255 158.036 100.607 155.36 97.8489 153.852C66.7814 136.913 35.6595 120.054 4.61913 103.074C0.312879 101.444 -0.814636 94.8553 3.16559 92.2743C6.14058 89.897 10.0257 91.7581 12.8784 93.3746C41.5687 109.16 70.4084 124.687 99.1394 140.417C101.965 141.939 104.75 143.691 107.901 144.533C114.082 145.063 119.258 137.374 115.386 132.117C103.758 113.004 91.7359 94.1354 79.9854 75.1036C77.3229 71.6124 78.3824 65.2957 83.3 64.6708C86.4516 63.5976 89.1956 66.0836 90.6356 68.6374C102.332 87.3703 113.919 106.171 125.67 124.863C130.153 132.647 144.362 128.096 143.778 119.185C144.022 82.575 143.751 45.9515 143.914 9.34155Z" fill="currentColor"></path>
<path d="M142.5 158.319C152.104 153.999 164.629 159.433 167.631 169.621C170.986 178.899 165.661 190.188 156.207 193.231C147.526 196.586 136.876 192.252 133.032 183.789C128.291 174.579 132.869 162.177 142.5 158.319Z" fill="currentColor"></path>
</svg>