<svg width="301" height="300" viewBox="0 0 301 300" fill="none" xmlns="http://www.w3.org/2000/svg">
<path d="M143.914 9.34155C143.533 5.40208 147.527 2.14181 151.303 3.32366C154.768 3.79911 156.221 7.61632 156.044 10.7271C156.153 46.9432 155.977 83.1728 156.126 119.402C155.936 126.004 163.448 128.667 168.936 128.667C173.595 128.368 175.701 123.641 177.942 120.231C188.661 102.884 199.447 85.5908 210.246 68.2843C211.686 65.6353 214.77 63.4754 217.853 64.8338C222.282 65.5809 223.111 71.4223 220.869 74.6553C209.187 93.755 197.096 112.624 185.468 131.751C180.877 138.285 190.114 147.508 196.689 142.985C227.824 126.14 258.878 109.133 290 92.2471C292.636 90.8208 296.439 90.4676 298.45 93.1437C301.642 96.3496 299.469 101.715 295.651 103.278C265.127 119.959 234.562 136.559 204.011 153.187C201.742 154.477 199.365 156.162 198.727 158.851C197.246 163.918 201.579 169.828 207.013 169.311C229.672 169.339 252.331 169.352 274.989 169.284C277.149 169.339 279.391 169.257 281.496 169.95C285.653 171.349 286.482 177.802 282.896 180.288C280.681 182.121 277.584 181.741 274.922 181.904C245.96 181.85 216.998 181.891 188.036 181.877C188.484 172.368 187.044 162.424 181.339 154.559C173.949 143.596 160.364 137.198 147.215 138.584C134.404 139.738 122.627 148.12 117.179 159.734C113.77 166.581 113.58 174.392 113.566 181.877C84.509 181.904 55.4519 181.836 26.3813 181.918C23.7324 181.782 20.6895 182.094 18.516 180.288C15.7176 178.114 15.5953 173.414 18.2443 171.105C20.445 169.135 23.5965 169.42 26.3406 169.298C48.9994 169.352 71.6717 169.325 94.3441 169.325C98.7862 169.719 102.984 165.942 102.957 161.446C103.255 158.036 100.607 155.36 97.8489 153.852C66.7814 136.913 35.6595 120.054 4.61913 103.074C0.312879 101.444 -0.814636 94.8553 3.16559 92.2743C6.14058 89.897 10.0257 91.7581 12.8784 93.3746C41.5687 109.16 70.4084 124.687 99.1394 140.417C101.965 141.939 104.75 143.691 107.901 144.533C114.082 145.063 119.258 137.374 115.386 132.117C103.758 113.004 91.7359 94.1354 79.9854 75.1036C77.3229 71.6124 78.3824 65.2957 83.3 64.6708C86.4516 63.5976 89.1956 66.0836 90.6356 68.6374C102.332 87.3703 113.919 106.171 125.67 124.863C130.153 132.647 144.362 128.096 143.778 119.185C144.022 82.575 143.751 45.9515 143.914 9.34155Z" fill="currentColor"></path>
<path d="M142.5 158.319C152.104 153.999 164.629 159.433 167.631 169.621C170.986 178.899 165.661 190.188 156.207 193.231C147.526 196.586 136.876 192.252 133.032 183.789C128.291 174.579 132.869 162.177 142.5 158.319Z" fill="currentColor"></path>
<path d="M0.108657 231.5C10.6637 231.432 21.2053 231.473 31.7603 231.473C38.8242 231.636 46.4858 231.69 52.5173 235.902C61.0755 241.512 64.5531 252.23 64.6617 262.038C64.8927 271.927 61.1434 282.523 52.7482 288.31C46.6488 292.535 38.9465 292.725 31.8011 292.915C21.2053 292.915 10.5958 292.956 0 292.875C1.4807 290.986 3.70852 289.261 3.54551 286.612C3.69494 270.705 3.55912 254.797 3.61345 238.89C4.03457 235.874 1.9018 233.606 0.108657 231.5ZM10.7181 237.586C10.7588 254.01 10.6502 270.42 10.7724 286.843C20.92 286.585 31.1354 287.454 41.2151 285.987C48.5778 284.819 53.8621 278.326 55.696 271.411C58.1276 262.31 57.3126 251.605 51.1045 244.147C47.4775 239.651 41.5682 237.858 35.9851 237.708C27.5627 237.382 19.1404 237.64 10.7181 237.586Z" fill="currentColor"></path>
<path d="M238.61 242.109C239.29 241.267 240.648 239.596 241.327 238.754C241.748 242.843 241.694 246.945 241.585 251.048C239.86 248.657 237.143 247.339 234.195 247.72C224.795 247.76 215.395 247.733 205.994 247.774C205.967 253.248 205.94 258.737 206.116 264.225C213.18 263.885 220.258 264.265 227.322 263.899C228.3 262.73 229.291 261.576 230.283 260.421C230.473 264.591 230.446 268.762 230.378 272.946C228.721 271.465 227.186 269.278 224.673 269.536C218.451 269.319 212.216 269.563 205.981 269.495C205.994 275.608 205.994 281.708 205.981 287.821C216.902 287.59 227.865 288.378 238.746 287.372C239.779 286.313 240.838 285.267 241.898 284.234C242.047 288.31 241.993 292.399 241.966 296.488C240.105 294.898 238.366 292.657 235.622 292.969C222.268 292.738 208.888 293.132 195.534 292.806C196.58 291.76 197.64 290.755 198.727 289.763C199.813 276.478 198.971 263.111 199.216 249.798C199.623 246.742 197.653 244.405 195.738 242.34C210.029 242.191 224.333 242.625 238.61 242.109Z" fill="currentColor"></path>
<path d="M257.778 246.024C269.093 238.783 283.887 240.698 295.651 245.874C296.901 245.317 298.15 244.76 299.414 244.217C297.852 248.197 295.828 251.974 293.763 255.723C293.41 254.622 292.69 252.435 292.323 251.349C285.218 247.083 276.483 246.064 268.428 247.681C264.76 248.686 260.427 250.18 258.905 254.025C256.867 257.91 260.101 262.651 264.162 263.276C273.386 265.205 283.14 263.52 292.187 266.4C298.884 268.587 301.628 276.86 299.033 283.095C297.077 288.407 291.603 291.273 286.454 292.754C275.913 295.512 264.583 293.542 254.938 288.719C252.806 287.293 250.496 287.796 248.418 289.059C250.102 284.956 252.262 281.058 255.156 277.702C255.36 278.789 255.767 280.976 255.971 282.077C263.103 286.804 271.824 289.548 280.409 288.094C285.218 287.375 291.005 285.826 292.961 280.8C294.496 277.2 292.241 272.663 288.37 271.956C278.48 269.565 267.721 271.97 258.24 267.731C249.776 263.86 249.994 250.52 257.778 246.024Z" fill="currentColor"></path>
<path d="M90.4045 242.339C95.7024 242.339 101.014 242.326 106.325 242.353C104.709 243.698 103.052 245.79 104.356 247.909C108.037 256.78 112.303 265.392 116.242 274.154C119.421 280.674 121.567 288.105 127.436 292.86C122.6 292.996 117.763 292.968 112.941 292.697C113.851 291.719 114.761 290.741 115.672 289.776C114.123 286.149 112.493 282.563 110.822 279.017C102.074 278.976 93.3388 278.99 84.5904 279.004C83.0554 282.427 81.5203 285.85 80.0668 289.314C81.0313 290.374 82.0094 291.447 83.0282 292.493C78.491 293.118 73.9131 292.996 69.3623 292.846C71.3185 290.713 73.655 288.825 74.8368 286.122C80.0804 274.996 85.1202 263.762 90.323 252.623C91.7358 249.308 94.6157 244.988 90.4045 242.339ZM87.0356 273.57C94.181 273.583 101.326 273.57 108.485 273.583C104.94 265.623 101.394 257.663 97.8624 249.689C94.1674 257.608 90.7034 265.637 87.0356 273.57Z" fill="currentColor"></path>
<path d="M131.361 242.464C137.257 242.274 143.152 242.328 149.048 242.342C147.988 244.135 144.891 245.955 147.201 248.088C156.873 259.608 167.238 270.57 177.141 281.913C177.073 270.706 177.249 259.512 177.086 248.319C177.344 245.819 175.307 244.162 174.016 242.355C178.037 242.315 182.058 242.355 186.093 242.369C184.177 244.366 182.588 246.838 182.887 249.732C183.009 263.031 182.642 276.344 183.104 289.643C183.933 290.322 185.59 291.667 186.419 292.332C181.542 293.351 176.543 293.066 171.652 292.482C172.726 291.436 173.799 290.376 174.872 289.317C163.502 276.425 151.833 263.792 140.463 250.9C140.626 263.846 140.109 276.805 140.748 289.751C141.767 290.743 142.772 291.762 143.764 292.794C139.566 293.012 135.314 293.215 131.185 292.319C132.271 291.477 133.372 290.648 134.472 289.833C134.975 276.452 134.581 263.072 134.73 249.691C135.029 246.811 133.548 244.216 131.361 242.464Z" fill="currentColor"></path>
</svg>