<svg width="494" height="640" viewBox="0 0 494 640" fill="none" xmlns="http://www.w3.org/2000/svg">
<path d="M-0.333313 -113C-5.38666 -96.48 -8.43997 -79.4133 -12.6133 -62.6533C-15.72 -51.1333 -17.1466 -39.1333 -21.9066 -28.1067C-21.9733 -35.4933 -22.92 -42.8667 -25.64 -49.7733C-28.0267 -37.5333 -27.9733 -25 -30.04 -12.72C-30.2933 -5.21334 -32.1866 2.09334 -32.08 9.62667C-33.64 4.72 -36.68 0.239998 -37.1867 -4.92C-41.04 2.26667 -39 10.4667 -40.2667 18.1733C-41.2667 24.44 -40.52 30.8667 -41.8533 37.0933C-42.64 43.5467 -42.2267 50.0667 -42.68 56.5333C-45.2133 54.08 -47.5867 51.4533 -50.0933 48.9733C-50.5467 55.9467 -50.28 62.9333 -50.56 69.8933C-52.28 82.32 -51.4666 94.9066 -52.0933 107.4C-54.3067 103.867 -55.9733 100.027 -57.7067 96.2666C-61.4133 105.8 -58.6933 116.107 -60.6533 125.96C-60.7067 135.76 -62.0133 145.44 -62.7067 155.213C-65.3467 149.12 -68.4133 143.227 -71.5067 137.347C-72 158.68 -71.2933 180.027 -71.8533 201.36C-74.9333 196.427 -77.84 191.4 -80.84 186.427C-79.2667 197.44 -76.96 208.32 -75.3867 219.333C-73.6533 230.48 -70.56 241.547 -70.3467 252.853C-73.0267 249.333 -75.5733 245.747 -78.48 242.427C-73.68 261.387 -68.52 280.267 -63.4133 299.147C-62.4533 302.04 -62.0934 305.04 -62.1733 308.093C-65.8533 302.973 -69.9467 298.187 -74.2 293.533C-66.5866 314.32 -58.8533 335.067 -51.3467 355.893C-54.8 353.973 -58.0933 351.773 -61.4933 349.8C-54.44 369.467 -45.4 388.387 -37.9333 407.907C-41.4134 405.293 -44.7867 402.493 -48.6266 400.413C-41.7333 417.213 -34.36 433.84 -28.1066 450.893C-31.36 448.707 -34.52 446.387 -37.5467 443.907C-36.28 449.36 -35.88 455.44 -38.9066 460.44C-44.4533 444.547 -50.8133 428.933 -56.96 413.267C-57.2667 416.92 -58.3067 420.453 -59.1867 424.013C-66.6133 406.48 -72.9866 388.52 -79.6266 370.68C-80.8 374.213 -82.3066 377.653 -83.0667 381.32C-89.6533 365.907 -96.1733 350.453 -102.68 335C-104.013 331.76 -105.76 328.707 -107.573 325.72C-108.107 331.28 -106.613 336.707 -106.387 342.24C-117.187 323.76 -126.36 304.373 -136.84 285.707C-136.853 289.68 -136.627 293.653 -136.693 297.64C-148.04 280.56 -158.773 263.04 -170.547 246.253C-170.213 251.667 -168.333 256.813 -167.053 262.053C-171.973 255.6 -178.227 250.373 -183.587 244.333C-191.613 235.12 -200.227 226.44 -208.373 217.333C-207.587 222.987 -205.147 228.2 -204.107 233.787C-217.773 221.573 -230.88 208.693 -244.16 196.04C-243.32 199.64 -242.267 203.2 -241.747 206.88C-255.04 194.947 -266.253 180.827 -280.027 169.413C-279.52 172.707 -278.813 175.973 -278.2 179.253C-286.573 172.96 -293.4 164.96 -301.307 158.147C-308.693 151.827 -315.12 144.48 -322.693 138.387C-320.707 143.333 -318.493 148.187 -316.133 152.973C-331.547 140.64 -345.747 126.867 -360.933 114.253C-356.627 120.84 -352.707 127.68 -348.147 134.093C-370.92 119.24 -392.947 103.093 -415.613 88.1866C-414.493 91.3866 -413.08 94.52 -411.347 97.4533C-404.333 109.48 -397.333 121.52 -390.507 133.653C-386.067 141.547 -381 149.12 -377.547 157.52C-383.573 153.973 -388.947 149.453 -394.373 145.08C-383.707 161.213 -371.213 176.053 -360.227 191.96C-364.84 190.12 -369.093 187.587 -373.467 185.28C-370.107 190.227 -366.373 194.893 -362.6 199.547C-353.853 210.16 -345.787 221.36 -336.587 231.6C-339.88 231.453 -343.16 231.213 -346.44 231C-334.947 244.04 -323.987 257.547 -312.4 270.52C-315.933 270.333 -319.36 269.573 -322.64 268.307C-311.027 282.307 -299.933 296.76 -288.053 310.547C-293.92 310.307 -298.907 307 -304.347 305.2C-291.493 320.2 -277.653 334.347 -264.373 348.96C-269.731 348.621 -274.771 346.612 -279.716 344.641L-280.053 344.507C-263.653 358.24 -246.2 370.667 -229.68 384.253C-233.6 383.533 -237.547 382.88 -241.533 382.813C-224.493 394.28 -206.84 404.813 -189.867 416.373C-195.613 417 -201.107 414.693 -206.853 414.84C-188.547 424.653 -169.973 433.96 -151.707 443.853C-155.267 444.493 -158.733 445.467 -162.28 446.147C-144.853 455.213 -126.427 462.307 -109.333 472.013C-113.333 472.187 -117.373 472.12 -121.307 472.947C-105.733 480.613 -89.64 487.293 -74.5733 495.933C-78.4 496.227 -82.3066 496.173 -86.0266 497.24C-80.6933 499.307 -75.7867 502.293 -70.5733 504.667C-66.96 505.933 -65.9867 509.893 -64.5333 513.013C-74.96 508.827 -84.5733 502.893 -94.8133 498.32C-97.3066 497.32 -99.64 495.96 -101.88 494.52C-100.853 497.36 -99.6266 500.16 -98.2133 502.853C-111.48 495 -125.613 488.72 -139.213 481.507C-138.44 484.013 -137.56 486.52 -136.653 489.013C-151.013 482.773 -164.84 475.253 -179.52 469.853C-177.267 472.933 -174.773 475.867 -172.347 478.84C-183.707 474.133 -195.453 470.44 -206.96 466.08C-210.32 464.64 -213.92 464.013 -217.56 464.053C-215.893 465.707 -214.2 467.387 -212.547 469.08C-228.867 464.48 -245.307 460.267 -261.773 456.213C-258.8 458.787 -255.453 460.84 -252.253 463.147C-267.96 463.947 -283.4 459.4 -299.08 460.653C-295.627 462.8 -292.027 464.707 -288.613 466.933C-303.253 467.6 -317.92 466.387 -332.56 467C-329.933 468.387 -327.293 469.76 -324.68 471.213C-338.96 471.547 -353.107 469.24 -367.387 469.6C-366 471.4 -364.6 473.2 -363.227 475.04C-378.52 475.56 -393.733 473.4 -409 474.24C-405.92 476.04 -402.693 477.6 -399.507 479.227C-403.787 479.4 -408.08 479.187 -412.347 479.653C-422.973 481.187 -433.8 479.427 -444.427 480.987C-439.013 482.533 -433.613 484.133 -428.12 485.36C-437.68 487.067 -447.387 487.907 -456.947 489.667C-469.36 490.627 -481.56 493.56 -494 494.12C-473.653 503.187 -451.453 507.373 -430.973 516.107C-436.093 516.467 -441.333 515.973 -446.347 517.293C-432.36 521.747 -417.653 523.28 -403.36 526.453C-403.613 526.413 -404.133 526.333 -404.387 526.293C-407.587 527.32 -409.907 530.773 -413.587 530C-399.2 532.973 -384.72 536.387 -370 537C-370.742 538.696 -371.516 540.382 -372.293 542.076L-372.6 542.747C-358.667 544.307 -344.787 546.44 -331 548.933C-333.853 549.747 -336.693 550.653 -339.493 551.627C-325.227 555.64 -310.227 556.227 -295.76 559.48C-299.933 560.787 -303.907 562.8 -308.307 563.347C-301.907 566.947 -294.453 565.333 -287.533 566.653C-278.8 567.133 -270.2 568.68 -261.44 568.88C-265.027 571.16 -268.867 573.027 -272.547 575.173C-266.28 574.107 -259.947 573.973 -253.613 573.6C-244.045 572.031 -234.274 572.19 -224.596 572.347L-223.773 572.36C-226.133 573.96 -228.493 575.573 -230.867 577.173C-225.8 576.053 -220.68 575.16 -215.547 574.413C-204.053 572.827 -192.747 569.76 -181.107 569.36C-184.086 571.746 -187.19 573.971 -190.294 576.195L-191.027 576.72C-174.96 572.893 -159.067 568.387 -143.027 564.453C-144.773 566.8 -146.533 569.147 -148.24 571.533C-133.013 567.533 -118.173 562.213 -102.987 558.12C-105.04 560.4 -107.2 562.6 -109.28 564.867C-95.5733 561.84 -82.36 556.947 -68.8267 553.28C-70.7467 555.4 -72.6933 557.52 -74.6 559.653C-65.3734 559.467 -57.0933 552.893 -47.7333 555.387C-55.8933 559.2 -64.7867 561.067 -73.4933 563.173C-73.1866 564.467 -72.8 565.76 -72.48 567.08C-81.7066 569.613 -90.9733 572.027 -100.173 574.64C-98.9467 575.88 -97.72 577.147 -96.5467 578.453C-106.813 580.2 -116.453 584.48 -126.533 587.08C-124.6 588 -122.627 588.88 -120.6 589.6C-130.453 593.427 -140.013 597.947 -150 601.427C-149.267 602.067 -147.813 603.36 -147.08 604C-155.707 608.667 -164.253 613.6 -173.333 617.373C-172.293 618.653 -170.96 619.427 -169.307 619.653C-177.253 626.72 -186.253 632.44 -194.36 639.28C-191.427 639.147 -188.48 638.973 -185.533 638.76C-193.333 644.613 -200.307 651.467 -207.88 657.6C-206.56 658.173 -205.24 658.76 -203.92 659.373C-211.72 665.133 -218.747 671.853 -226.653 677.48L-221.853 679.293C-230.267 685.907 -238.187 693.133 -246 700.413C-244.587 700.467 -241.773 700.56 -240.36 700.613C-247.587 706.493 -253.627 713.667 -260.853 719.56C-258.253 719.187 -255.64 718.907 -253.013 718.653C-262.253 729.4 -271.773 739.987 -280.053 751.507C-266.187 746.307 -253.067 739.28 -239.387 733.6C-241.587 736.72 -244.067 739.64 -246.547 742.547C-238.293 737.667 -230.053 732.787 -221.96 727.64C-222.027 729.413 -222.107 731.2 -222.213 732.987C-213.267 726.32 -203.387 721.013 -194.453 714.333C-194.427 715.653 -194.4 718.28 -194.387 719.587C-188.453 715.027 -182.32 710.72 -176.147 706.52C-173.293 704.44 -169.28 706.893 -166.613 704.4L-165.55 703.678C-159.479 699.558 -153.41 695.44 -147.187 691.56C-148.027 694.253 -148.933 696.933 -149.773 699.64C-141.64 693.147 -133.067 687.227 -125.107 680.507C-124.627 682.253 -124.133 684.013 -123.627 685.773C-117.907 677.667 -109.893 671.587 -103.813 663.773L-103.61 664.018C-102.889 664.885 -102.159 665.764 -101.44 666.653C-94.8933 658.187 -88.2933 649.747 -81.5467 641.44C-80.84 642.893 -80.1466 644.36 -79.4533 645.853C-74.7733 637.373 -68.92 629.627 -64.0533 621.253C-63.0667 622.587 -62.0533 623.92 -61.0133 625.253C-57.2667 616.867 -51.76 609.467 -47.5467 601.333C-46.12 601.507 -44.6933 601.707 -43.2533 601.933C-39.96 595.88 -36.2667 590.04 -32.6667 584.16C-30.8 584.107 -28.3466 584.693 -27.3867 582.573C-19.28 569.973 -11.8667 556.933 -3.60001 544.427L3.13336 544.507C10.64 557.613 19.04 570.213 26.5601 583.307C28.0134 583.053 29.4667 582.84 30.9333 582.64C34.7467 589.573 39.2267 596.107 42.8134 603.16C43.5734 601.867 44.3334 600.587 45.1334 599.32C50.2933 608.067 55.8533 616.6 60.4133 625.707C61.36 624.24 62.2934 622.773 63.2134 621.32C68.6 630.467 74.52 639.307 80.3467 648.187C80.3334 646.253 80.3066 642.387 80.3066 640.453C86.8533 649.773 94.32 658.427 101.107 667.587C101.507 666.253 101.893 664.933 102.28 663.613C108.827 670.493 115.813 676.987 121.573 684.573C122.067 683.44 123.067 681.187 123.573 680.067C131.827 686.893 140.453 693.293 149.133 699.573C147.987 696.6 146.72 693.693 145.36 690.827C151.84 695.267 158.413 699.56 164.92 703.973C167.587 706.52 171.48 704.933 174.64 706.133C180.653 710.2 186.533 714.507 192.48 718.693C193.04 717.413 193.667 716.173 194.347 714.973C201.827 720.227 209.533 725.16 217.24 730.053C218.84 731.213 219.88 728.52 221.16 727.92C229.427 732.747 237.4 738.107 245.933 742.48C243.32 739.667 240.667 736.907 238.253 733.947C252.507 739.307 266.08 746.387 280.053 752.453C271.107 740.84 261.667 729.56 251.88 718.64C254.6 718.907 257.333 719.213 260.067 719.587C252.773 713.48 246.44 706.307 238.827 700.56C240.507 700.493 243.867 700.347 245.56 700.28C237.133 693.533 229.28 686.12 221.147 679.053C222.6 678.48 224.08 677.973 225.573 677.48C217.773 671.773 210.72 665.147 202.987 659.373C204.307 658.773 205.627 658.187 206.96 657.613C199.44 651.613 192.467 644.987 185 638.947C187.827 639.107 190.653 639.28 193.507 639.48C185.693 632.853 177.093 627.24 169.36 620.547C170.36 619.493 171.373 618.453 172.373 617.413C165.253 614.533 158.613 610.653 151.76 607.213C148.213 605.613 147.333 601.027 143.613 599.613C135.667 595.853 127.28 593.107 119.453 589.093C122.133 588.653 124.84 588.333 127.533 587.92C117.28 584.627 106.987 581.413 96.7467 578.067C97.6267 576.813 98.5334 575.6 99.4534 574.387C90.1201 572.493 81.04 569.52 71.8 567.227C72.0801 565.88 72.4267 564.56 72.7333 563.227C63.6533 561.28 54.72 558.653 46 555.52C55.4133 553.12 64.1733 558.48 73.2 560.267C71.92 558.027 70.5601 555.84 69.28 553.627C82.0934 557.427 94.8134 561.56 107.747 564.96C106 562.613 104.173 560.347 102.32 558.12C117.333 562.44 132.173 567.387 147.2 571.653C145.667 569.507 144.12 567.347 142.547 565.24C155.827 566.947 168.44 571.8 181.507 574.573L181.958 574.667C184.757 575.248 187.583 575.834 190.24 576.973C187.08 574.267 183.587 572 180.333 569.44C196.787 570.4 212.827 574.533 229.093 576.947C227.093 575.347 225.04 573.773 223.053 572.187L224.248 572.193C231.798 572.229 239.357 572.266 246.893 572.76C255.133 574.333 263.587 573.667 271.853 575.133C267.947 573.04 264.053 570.933 260.147 568.853C268.507 568.707 276.707 567.08 285.067 566.787C292.413 565.68 299.933 566.133 307.12 563.933L306.934 563.864C302.783 562.327 298.643 560.795 294.4 559.547C308.547 557.04 322.693 553.973 337.08 553.36C337.293 552.88 337.72 551.933 337.933 551.453C334.907 550.613 331.853 549.867 328.813 549.173C333.4 549.133 337.52 546.88 342.107 546.813C352.333 545.587 362.587 544.52 372.733 542.693C370.88 541.24 369.027 539.84 367.24 538.36C382.36 535.4 397.787 534.027 412.787 530.427C409.387 529.2 405.96 528.187 402.427 527.573C416.467 523.44 431.173 522.267 445.253 518.267C440.76 516.612 436.12 516.33 431.357 516.041L430.68 516C451.52 508.907 472.547 502.387 493.493 495.587C471.96 491.573 450.133 489.4 428.467 486.333C433.787 484.507 438.96 482.24 444.467 480.987C429.267 479.813 413.987 481 398.773 480.067C401.92 477.893 405.387 476.253 408.587 474.147C392.88 474.947 377.133 475.04 361.387 475.08C362.893 473.307 364.427 471.56 365.96 469.827C351.627 469.48 337.373 471.987 323.04 471.04C325.36 469.48 327.827 468.12 330.333 466.84C315.893 466.627 301.453 467.4 287.027 467.027C290.173 464.76 293.533 462.787 296.787 460.667C281.453 459.48 266.373 463.68 251.053 463.32C254.053 461.04 257.027 458.72 259.88 456.24C243.733 460.347 227.64 464.653 211.48 468.707C213.493 466.387 215.573 464.12 217.573 461.8C202.858 467.02 188.166 472.332 173.487 477.64L170.28 478.8C173.133 475.627 176.307 472.733 179 469.413C175.96 470.187 173.053 471.333 170.253 472.72C158.653 478.373 146.813 483.533 135.133 489.04L135.317 488.614C136.363 486.182 137.411 483.748 138.28 481.253C124.173 488.16 110.32 495.587 96.2667 502.627C98.1201 499.92 99.8667 497.16 101.6 494.387C89.0934 499.76 77.4933 507.187 64.7067 511.92C66.4133 509.427 67.3334 506.027 70.16 504.547C75.1334 501.867 80.3066 499.613 85.2133 496.827C81.4266 496.28 77.6134 496.16 73.8 495.96C88.7067 487.133 104.867 480.72 120.267 472.84C116.32 472.173 112.347 472.293 108.4 471.973C118.373 465.813 129.453 461.76 139.867 456.44C147.107 452.6 155.16 450.253 161.76 445.253C158.08 444.72 154.373 444.467 150.707 444.093C167.8 434.32 185.587 425.813 202.907 416.44C197.733 416.093 192.533 416.227 187.4 416.947C205.28 405.827 222.88 394.253 240.613 382.893C236.693 383 232.787 383.373 228.88 383.533C245.12 371.627 260.84 359 276.72 346.627C271.667 346.307 267.16 348.613 262.653 350.48C275.347 335.173 289.547 321.2 302.707 306.32C296.92 306.973 291.933 310.133 286.507 311.947C297.893 297.227 309.8 282.907 321.573 268.493C317.947 269.907 314.253 271.2 310.453 272C322.32 258.293 333.64 244.093 345.973 230.813C342.667 231 339.36 231.253 336.08 231.48C348.493 216.213 360.853 200.88 372.72 185.173C367.947 187.667 363.267 190.333 358.547 192.933C369.64 176.787 382.227 161.733 393.227 145.533C387.787 149.56 382.467 153.72 376.92 157.573C377.293 154.707 378.987 152.24 380.213 149.68C389.147 134.507 397.867 119.213 406.773 104.027C409.627 98.96 412.96 94.0933 414.693 88.48C392.16 103.52 369.987 119.093 347.453 134.107C351.56 127.667 355.44 121.08 359.867 114.853C344.307 126.76 330.453 140.72 315.267 153.107L315.479 152.645C317.689 147.852 319.903 143.051 321.453 138C307.467 151.84 292.827 165 278.573 178.56C278.733 175.16 278.96 171.773 279.12 168.373C266.6 181.333 253.547 193.787 241.173 206.88C241.187 203.093 242.307 199.52 243.56 196.013C229.413 208.373 216.64 222.2 202.493 234.56C204.013 229.24 206.493 224.053 205.96 218.36C193.107 233.307 179.493 247.573 165.96 261.893C167.773 256.387 168.84 250.667 170.293 245.067C158.24 262.427 147.307 280.533 135.267 297.893C135.173 294.027 135.293 290.187 135.133 286.347C125.667 304.907 116 323.387 105.987 341.653C105.613 336.213 106.133 330.747 105.493 325.307C98.3734 344.027 89.9867 362.227 82.4267 380.76C81.1334 377.467 80.1201 374.067 78.6267 370.867C72.1201 389.147 64.52 407.027 58.32 425.413C57.64 421.4 56.6801 417.453 55.92 413.467C49.2267 429.173 43.9866 445.48 36.8267 460.987C35.7733 455.627 34.96 450.2 35.2 444.72C32.4667 446.92 29.6667 449.067 26.8534 451.173C31.0534 440.2 35.7067 429.4 40.1067 418.52C42.4 412.747 45.3201 407.133 46.3334 400.947C43.0001 403.2 39.8 405.64 36.5467 408.013C44.9467 388.747 53 369.307 60.6934 349.747C57.32 351.8 54.04 354 50.5601 355.867C57.48 335.467 65.32 315.387 72.6533 295.12C67.48 298.96 64.16 304.547 59.8 309.173C65.4267 287.24 72.16 265.533 76.8267 243.387C74.28 246.267 71.9067 249.267 69.4667 252.227C69.8934 238.853 73.6534 225.84 75.5067 212.613C76.5334 204.08 79.0933 195.787 79.4133 187.187C76.64 191.76 73.8533 196.32 71.24 200.973C70.2 179.747 71.0001 158.44 70.8 137.173C67.7867 142.707 64.04 148.08 62.7333 154.333C58.4133 146.427 61.1334 137.587 59.7467 129.187C58.5467 121.693 59.6534 114.027 58.2267 106.56C57.5067 102.84 57.72 99.0267 57.3867 95.28C55.5067 99.1733 53.4667 102.987 51.5067 106.853C50.7067 99.6266 51.1733 92.3467 50.7067 85.0933C48.9067 73.04 50.12 60.8 49.3467 48.6667C46.72 51.2667 44.3734 54.1067 41.92 56.8667C42.2001 47.24 40.1467 37.8 40.1467 28.2C39.0267 16.6133 38.72 5 37.2 -6.54667C35.6934 -1.37334 33.2667 3.45333 31.7333 8.61333C29.4 1.09333 30.0267 -6.81335 28.5467 -14.4533C27.6667 -27.1333 25.6533 -39.6933 25.0667 -52.4C23.0667 -45.0667 21.72 -37.5733 19.72 -30.2267C17.56 -36.4267 16.1334 -42.84 14.8534 -49.2533C9.57336 -70.4533 5.17334 -91.8667 -0.333313 -113Z" fill="#14462F"/>
</svg>
