<svg xmlns="http://www.w3.org/2000/svg" viewBox="0 0 64 64" fill="none">
  
  <g stroke="currentColor" stroke-width="1.4" stroke-linecap="round" stroke-linejoin="round" fill="none">
    <path d="M32 56 L32 30"></path>
    <path d="M32 30 C 22 30, 16 22, 16 12 C 26 12, 32 20, 32 30 Z" fill="currentColor" fill-opacity="0.0"></path>
    <path d="M32 30 C 42 30, 48 22, 48 12 C 38 12, 32 20, 32 30 Z" fill="currentColor" fill-opacity="0.0"></path>
    <path d="M32 38 C 25 38, 21 33, 21 26 C 28 26, 32 32, 32 38 Z" fill="currentColor" fill-opacity="0.0"></path>
    <path d="M32 38 C 39 38, 43 33, 43 26 C 36 26, 32 32, 32 38 Z" fill="currentColor" fill-opacity="0.0"></path>
  </g>
</svg>