<svg width="636" height="527" viewBox="0 0 636 527" fill="none" xmlns="http://www.w3.org/2000/svg">
<path d="M665.223 41.0739C696.245 19.0959 732.797 3.87807 770.777 0.545593L770.778 664.124L0.500704 664.124L0.50006 553.067C3.95755 555.942 7.20882 559.051 10.4614 562.186C13.9638 565.561 17.4701 568.967 21.2162 572.112L21.8032 572.604L22.0175 571.869C26.0038 558.197 30.724 544.555 39.0154 532.917L39.0242 532.905C52.8877 512.171 73.7999 496.311 97.4572 488.444L97.4609 488.443C123.886 479.466 153.613 481.085 179.175 492.215L179.18 492.217C193.846 498.383 206.698 508.182 217.779 519.551L218.214 519.997L218.554 519.476C220.786 516.073 222.829 512.519 224.943 509.071C227.065 505.612 229.271 502.238 231.858 499.139L231.862 499.134L231.868 499.128C248.884 477.381 274.155 462.25 301.379 457.557L301.383 457.556C318.242 454.532 335.744 455.633 352.279 460.12L352.708 460.236L352.874 459.823C361.296 438.833 374.925 419.639 393.477 406.481L393.477 406.482C409.233 395.323 427.457 387.187 446.742 385.016C447.691 385.008 448.426 384.707 448.987 384.189C449.542 383.678 449.891 382.991 450.138 382.282C450.386 381.572 450.547 380.793 450.696 380.076C450.848 379.341 450.986 378.679 451.185 378.136L451.199 378.098L451.207 378.058C458.748 338.671 483.093 302.909 516.821 281.236L516.829 281.231L516.836 281.226C533.228 269.868 552.275 263.332 571.656 258.963L572.077 258.869L572.045 258.438L571.97 257.455C570.595 239.276 569.213 220.988 571.484 202.849L571.485 202.849L571.486 202.835C577.708 138.794 612.736 78.2839 665.223 41.0739Z" fill="#174A33" stroke="#F9F4E1"/>
</svg>
