<svg width="627" height="520" viewBox="0 0 627 520" fill="none" xmlns="http://www.w3.org/2000/svg">
<path d="M-38.5027 41.0739C-69.5247 19.0959 -106.076 3.87807 -144.056 0.545593L-144.057 664.124L626.22 664.124L626.221 553.067C622.763 555.942 619.512 559.051 616.259 562.186C612.757 565.561 609.251 568.967 605.504 572.112L604.917 572.604L604.703 571.869C600.717 558.197 595.997 544.555 587.705 532.917L587.697 532.905C573.833 512.171 552.921 496.311 529.264 488.444L529.26 488.443C502.834 479.466 473.107 481.085 447.546 492.215L447.54 492.217C432.874 498.383 420.023 508.182 408.942 519.551L408.507 519.997L408.166 519.476C405.935 516.073 403.892 512.519 401.777 509.071C399.656 505.612 397.449 502.238 394.863 499.139L394.858 499.134L394.853 499.128C377.837 477.381 352.566 462.25 325.341 457.557L325.338 457.556C308.478 454.532 290.976 455.633 274.442 460.12L274.012 460.236L273.847 459.823C265.425 438.833 251.795 419.639 233.244 406.481L233.244 406.482C217.487 395.323 199.263 387.187 179.979 385.016C179.03 385.008 178.295 384.707 177.733 384.189C177.179 383.678 176.83 382.991 176.583 382.282C176.335 381.572 176.174 380.793 176.025 380.076C175.873 379.341 175.735 378.679 175.536 378.136L175.522 378.098L175.514 378.058C167.973 338.671 143.628 302.909 109.899 281.236L109.892 281.231L109.885 281.226C93.4925 269.868 74.446 263.332 55.065 258.963L54.6435 258.869L54.6761 258.438L54.7505 257.455C56.1254 239.276 57.5078 220.988 55.237 202.849L55.236 202.849L55.2346 202.835C49.0125 138.794 13.9842 78.2839 -38.5027 41.0739Z" fill="#174A33" stroke="#F9F4E1"/>
</svg>
