<svg width="52" height="31" viewBox="0 0 52 31" fill="none" xmlns="http://www.w3.org/2000/svg">
<path d="M24.9209 1.0625C24.8689 0.523987 25.4231 0.072546 25.9375 0.233398L25.9541 0.238281L25.9707 0.240234C26.1928 0.27085 26.3561 0.407069 26.4668 0.607422C26.5513 0.760579 26.6007 0.945331 26.6143 1.12793L26.6162 1.30957V1.32129C26.635 7.56796 26.6041 13.8308 26.6299 20.082C26.6133 20.7417 26.9864 21.1995 27.4668 21.4814C27.9427 21.7607 28.5407 21.8808 29.041 21.8809H29.0547C29.5315 21.8501 29.8691 21.5897 30.1279 21.2832C30.3775 20.9875 30.5848 20.6061 30.7637 20.334L30.7666 20.3301C32.6166 17.3358 34.4774 14.35 36.3418 11.3623L36.3428 11.3633L36.3486 11.3525C36.4568 11.1536 36.6256 10.9771 36.8164 10.877C37.003 10.7791 37.2046 10.7555 37.4053 10.8438L37.4287 10.8545L37.4531 10.8584C37.7373 10.9064 37.9153 11.1142 37.9844 11.3955C38.0549 11.6829 38.0004 12.0145 37.8428 12.2422H37.8418L37.8359 12.252C35.8292 15.5328 33.7322 18.8081 31.7314 22.0986C31.2609 22.7688 31.516 23.556 32 24.04C32.4817 24.5217 33.2643 24.7774 33.9355 24.3232C39.3073 21.417 44.6678 18.482 50.0361 15.5693C50.2373 15.4605 50.4798 15.3954 50.7021 15.4053C50.9206 15.415 51.1102 15.4958 51.2402 15.6689L51.248 15.6797L51.2578 15.6895C51.4702 15.9028 51.5112 16.1903 51.4219 16.4688C51.331 16.7517 51.111 17.0017 50.8408 17.1123L50.8213 17.1221C45.552 20.0018 40.2754 22.8677 35.001 25.7383L34.998 25.7402C34.6313 25.9489 34.1819 26.2495 34.0186 26.7441L33.9893 26.8457C33.8455 27.3511 33.9912 27.8856 34.2939 28.2783C34.596 28.6699 35.0719 28.9406 35.6143 28.8965V28.8975C39.5241 28.9021 43.4345 28.9043 47.3447 28.8926C47.736 28.9024 48.0827 28.8895 48.4102 28.9971C48.6782 29.0876 48.8557 29.3488 48.8965 29.6562C48.9373 29.9642 48.8334 30.2663 48.6006 30.4277L48.5938 30.4326L48.5869 30.4385C48.4383 30.5615 48.2533 30.617 48.0332 30.6416C47.9231 30.6539 47.8083 30.6574 47.6885 30.6602C47.5716 30.6628 47.4459 30.6636 47.3262 30.6709C42.3991 30.6617 37.4714 30.6691 32.5449 30.667C32.5899 29.1699 32.3584 27.6033 31.5273 26.3018L31.3447 26.0332C30.0277 24.0841 27.6146 22.9478 25.2734 23.1934C22.9916 23.3991 20.8987 24.889 19.9277 26.9551C19.3469 28.1214 19.2905 29.4359 19.2842 30.667C14.3385 30.6712 9.39044 30.659 4.44141 30.6729C4.18802 30.6599 3.97457 30.6702 3.74609 30.6426C3.584 30.623 3.44128 30.5859 3.31836 30.5176L3.20215 30.4385L3.19629 30.4346L3.13086 30.376C2.98544 30.2302 2.90368 30.0219 2.89746 29.8027C2.89126 29.5836 2.96127 29.3721 3.09668 29.2197L3.16016 29.1562C3.30888 29.0231 3.49615 28.9597 3.71777 28.9297C3.94623 28.8988 4.1705 28.9054 4.42383 28.8945V28.8955C8.32987 28.9049 12.2387 28.8985 16.1465 28.8984V28.8994C16.9732 28.9727 17.7529 28.3247 17.8428 27.5049L17.8516 27.3389C17.8965 26.7256 17.4861 26.2555 17.0527 25.9668L16.8652 25.8535C11.5011 22.9287 6.12914 20.0183 0.770508 17.0869L0.758789 17.0801L0.745117 17.0752C0.454414 16.9649 0.258159 16.6804 0.210938 16.3623C0.164109 16.0462 0.269311 15.7372 0.532227 15.5664L0.541016 15.5605L0.548828 15.5547C0.743855 15.3988 0.971807 15.374 1.22754 15.4297C1.4891 15.4867 1.75728 15.624 2.00195 15.7627L2.00391 15.7637C6.95602 18.4883 11.9392 21.1706 16.8965 23.8848L16.8975 23.8857C17.3683 24.1393 17.8796 24.46 18.4531 24.6133L18.4697 24.6182L18.4873 24.6191C19.1106 24.6726 19.6665 24.3122 19.9707 23.8291C20.2742 23.3471 20.35 22.7039 19.9658 22.1709C17.959 18.8723 15.881 15.6097 13.8555 12.3291L13.8506 12.3203L13.8447 12.3125L13.7793 12.2148C13.642 11.9758 13.6046 11.6673 13.6748 11.3984C13.7532 11.0984 13.9566 10.8726 14.2832 10.8311L14.3027 10.8291L14.3223 10.8223C14.5242 10.7535 14.7152 10.7951 14.8936 10.9092C15.0307 10.9969 15.1555 11.1252 15.2568 11.2686L15.3496 11.416L15.3545 11.4238C17.371 14.6536 19.3715 17.8986 21.3984 21.123V21.124C21.8492 21.9067 22.7735 22.043 23.5234 21.8057C24.2694 21.5696 24.9486 20.9309 24.8975 20.0439L24.8984 20.0449C24.9406 13.7281 24.8938 7.39539 24.9219 1.08203V1.07227L24.9209 1.0625Z" fill="white" stroke="#174A33" stroke-width="0.4"/>
</svg>
